<svg width="24" height="24" viewBox="0 0 24 24" fill="none" xmlns="http://www.w3.org/2000/svg">
<path d="M1.9834 13.1175V18.4706L6.61934 21.1472L11.2553 18.4706V13.1175L6.61934 10.4409L1.9834 13.1175ZM10.5053 18.0375L6.61934 20.2814L2.7334 18.0375V13.5502L6.61934 11.3067L10.5053 13.5502V18.0375ZM3.93949 15.7941C3.93949 17.2716 5.14184 18.4739 6.61934 18.4739C8.09684 18.4739 9.29918 17.2716 9.29918 15.7941C9.29918 14.3166 8.09684 13.1142 6.61934 13.1142C5.14184 13.1142 3.93949 14.3166 3.93949 15.7941ZM8.54918 15.7941C8.54918 16.8581 7.6834 17.7239 6.61934 17.7239C5.55527 17.7239 4.68949 16.8581 4.68949 15.7941C4.68949 14.73 5.55527 13.8642 6.61934 13.8642C7.6834 13.8642 8.54918 14.73 8.54918 15.7941ZM21.354 3.46875H20.8004C20.3523 1.92094 18.7975 0.698439 16.8254 0.379689C16.7167 0.362346 16.6061 0.393283 16.5226 0.464533C16.4387 0.535783 16.3909 0.640314 16.3909 0.750002V1.79625C16.3909 2.025 16.0267 2.11031 15.7975 2.11031C15.5682 2.11031 15.204 2.025 15.204 1.79625V0.750002C15.204 0.640314 15.1557 0.535783 15.0723 0.464533C14.9884 0.393283 14.8778 0.362346 14.7695 0.379689C12.7975 0.698439 11.2426 1.92094 10.7945 3.46875H10.2409C9.87574 3.46875 9.57902 3.76547 9.57902 4.13063V5.32313C9.57902 5.68828 9.87574 5.985 10.2409 5.985H13.014V21.0122C13.014 21.1163 13.0576 21.2161 13.134 21.2869L15.5434 23.5247C15.6151 23.5917 15.707 23.625 15.7984 23.625C15.8898 23.625 15.9817 23.5917 16.0534 23.5247L18.4628 21.2869C18.5392 21.2161 18.5828 21.1163 18.5828 21.0122V5.985H21.3559C21.7211 5.985 22.0178 5.68828 22.0178 5.32313V4.13063C22.0178 3.76547 21.7211 3.46875 21.3559 3.46875H21.354ZM14.4536 1.20891V1.79625C14.4536 2.13938 14.6232 2.43563 14.9307 2.63016C15.1656 2.77875 15.4731 2.86031 15.797 2.86031C16.5756 2.86031 17.1404 2.41266 17.1404 1.79625V1.20891C18.527 1.55063 19.607 2.40516 20.0101 3.46922H11.5834C11.9865 2.40516 13.067 1.55063 14.4531 1.20891H14.4536ZM17.8314 18.637L13.7631 19.74V17.46L17.8314 16.357V18.637ZM13.7631 14.4023L17.8314 13.2994V15.5794L13.7631 16.6823V14.4023ZM17.8314 12.5227L13.7631 13.6256V11.3456L17.8314 10.2427V12.5227ZM17.8314 9.46547L13.7631 10.5684V8.28844L17.8314 7.18547V9.46547ZM15.797 22.7386L13.7626 20.8491V20.5167L17.8309 19.4138V20.8486L15.7965 22.7381L15.797 22.7386ZM17.8314 6.40828L13.7631 7.51125V5.98547H17.8314V6.40828ZM21.2659 5.23547H10.3281V4.21922H20.5037C20.5037 4.21922 20.5042 4.21922 20.5046 4.21922H20.5056H21.2654V5.23547H21.2659Z" fill="black"/>
</svg>
