<svg width="24" height="24" viewBox="0 0 24 24" fill="none" xmlns="http://www.w3.org/2000/svg">
<path d="M18.4615 1H5.53846C5.24119 1 5 1.23462 5 1.52381V22.4762C5 22.7654 5.24119 23 5.53846 23H18.4615C18.7588 23 19 22.7654 19 22.4762V1.52381C19 1.23462 18.7588 1 18.4615 1ZM17.9231 2.04762V21.9524H6.07692V2.04762H17.9231Z" fill="black"/>
<path d="M7.69276 20.9048H16.3081C16.6054 20.9048 16.8466 20.6701 16.8466 20.381V15.4921C16.8466 15.2029 16.6054 14.9683 16.3081 14.9683H7.69276C7.39548 14.9683 7.1543 15.2029 7.1543 15.4921V20.381C7.1543 20.6701 7.39548 20.9048 7.69276 20.9048ZM8.23122 19.8572V16.0159H15.7697V19.8572H8.23122Z" fill="black"/>
<path d="M7.69276 13.9206H16.3081C16.6054 13.9206 16.8466 13.686 16.8466 13.3968V5.01585C16.8466 3.6961 14.3345 3.09521 12.0005 3.09521C8.966 3.09521 7.1543 3.81341 7.1543 5.01585V13.3968C7.1543 13.686 7.39548 13.9206 7.69276 13.9206ZM8.23122 5.01585C8.23122 4.82351 9.13356 4.14283 12.0005 4.14283C14.4249 4.14283 15.6968 4.78259 15.7697 5.01585V12.873H8.23122V5.01585Z" fill="black"/>
</svg>
