<svg width="24" height="24" viewBox="0 0 24 24" fill="none" xmlns="http://www.w3.org/2000/svg">
<path d="M22.1248 19.1674H20.7467C20.8716 19.2536 21.4311 14.2234 21.4862 14.1289C21.6035 13.256 21.5204 12.3679 21.2432 11.532L20.1505 8.25414C20.071 8.01522 19.9183 7.80743 19.714 7.66033C19.5096 7.51322 19.2641 7.43429 19.0123 7.43476H16.8718C16.6135 7.43456 16.3616 7.51574 16.152 7.6668C15.9424 7.81785 15.7857 8.0311 15.7041 8.27626L14.6203 11.5271C14.3422 12.3661 14.258 13.2572 14.374 14.1334L15.0073 18.8625C15.0227 18.9683 15.0524 19.0715 15.0955 19.1693H11.9455L12.9816 18.1335C13.0328 18.0806 13.0674 18.0139 13.0811 17.9416C13.0949 17.8692 13.0872 17.7945 13.0591 17.7265C13.0309 17.6584 12.9835 17.6001 12.9226 17.5587C12.8617 17.5173 12.7901 17.4946 12.7165 17.4934H10.804L12.3317 12.9596C12.3501 12.9032 12.3549 12.8433 12.3458 12.7847C12.3367 12.7261 12.3139 12.6704 12.2793 12.6222C12.2447 12.5741 12.1992 12.5347 12.1466 12.5074C12.0939 12.4801 12.0355 12.4656 11.9762 12.465H11.3248C12.072 11.5069 12.6708 10.4418 13.1012 9.30564C15.1543 3.55314 13.3146 0.830639 9.68872 7.04326C9.4851 5.11201 8.81797 2.40826 7.69635 2.40826C6.54135 2.40826 5.94435 5.24776 5.72797 6.97126C4.85197 5.47126 3.1836 3.08814 2.11897 3.54489C0.944099 4.04964 1.69372 7.54576 2.35635 9.30601C2.78927 10.4417 3.38925 11.5064 4.13647 12.465H3.34897C3.28836 12.4657 3.22881 12.481 3.17537 12.5096C3.12192 12.5382 3.07614 12.5793 3.0419 12.6293C3.00765 12.6793 2.98596 12.7368 2.97864 12.797C2.97132 12.8572 2.9786 12.9182 2.99985 12.975L4.75297 17.4926H2.66235C2.58874 17.4939 2.5171 17.5166 2.45623 17.558C2.39536 17.5994 2.34793 17.6577 2.31976 17.7257C2.29159 17.7937 2.28391 17.8685 2.29767 17.9408C2.31144 18.0131 2.34604 18.0799 2.39722 18.1328L3.43297 19.1685H2.01172C1.91227 19.1685 1.81688 19.208 1.74656 19.2783C1.67623 19.3487 1.63672 19.4441 1.63672 19.5435V21.2198C1.63672 21.3192 1.67623 21.4146 1.74656 21.4849C1.81688 21.5553 1.91227 21.5948 2.01172 21.5948H22.1248C22.2243 21.5948 22.3197 21.5553 22.39 21.4849C22.4603 21.4146 22.4998 21.3192 22.4998 21.2198V19.5435C22.5 19.4942 22.4904 19.4453 22.4716 19.3997C22.4528 19.354 22.4252 19.3126 22.3904 19.2776C22.3556 19.2427 22.3142 19.215 22.2686 19.196C22.223 19.1771 22.1742 19.1674 22.1248 19.1674ZM15.7498 18.7613L15.1172 14.034C15.0162 13.271 15.0896 12.495 15.3321 11.7645L16.4158 8.51364C16.4476 8.41781 16.5087 8.33443 16.5906 8.27538C16.6725 8.21633 16.7709 8.18462 16.8718 8.18476H19.0123C19.1065 8.18497 19.1981 8.21467 19.2745 8.26969C19.3508 8.32472 19.408 8.4023 19.438 8.49151L20.5303 11.7694C20.7717 12.4963 20.844 13.2686 20.7418 14.0276L20.1006 18.7369C20.084 18.856 20.025 18.9651 19.9344 19.0442C19.8438 19.1233 19.7277 19.167 19.6075 19.1674H16.2148C16.1014 19.1673 15.9918 19.1261 15.9063 19.0514C15.8208 18.9768 15.7652 18.8737 15.7498 18.7613ZM13.0401 4.23076C13.3513 4.44114 13.2928 6.66826 12.4 9.03976C11.9247 10.2911 11.2341 11.4497 10.3596 12.4631H9.03172C9.48168 11.2072 9.7257 9.88681 9.75435 8.55301C9.82935 8.37901 9.91335 8.20276 10.0048 8.02276C11.1336 5.82114 12.6568 4.15914 13.0401 4.23076ZM7.69297 3.15639C8.06122 3.22764 8.8836 5.29689 8.9976 7.82664C9.062 9.40824 8.80139 10.9862 8.23185 12.4631H7.1511C6.5454 11.0003 6.28639 9.41712 6.39435 7.83751C6.5661 5.36851 7.30747 3.23926 7.69297 3.15639ZM3.05797 9.03939C2.1651 6.66789 2.10697 4.44114 2.41147 4.23376C2.80522 4.15051 4.32397 5.82151 5.4516 8.02126C5.51235 8.14164 5.57347 8.26501 5.62672 8.38464C5.60707 9.77756 5.85006 11.1617 6.34297 12.4646H5.10285C4.22803 11.4499 3.53612 10.2909 3.05797 9.03939ZM3.89797 13.2131H11.455L10.0123 17.4915H5.5581L3.89797 13.2131ZM3.56647 18.2415H11.8123L10.8861 19.1674H4.49235L3.56647 18.2415ZM21.7498 20.8436H2.38672V19.9174H21.7498V20.8436Z" fill="black"/>
</svg>
