<svg width="24" height="24" viewBox="0 0 24 24" fill="none" xmlns="http://www.w3.org/2000/svg">
<path d="M19.8738 9.7494C20.34 8.97385 20.1428 7.95395 19.3972 7.41362L11.3125 1.53967C10.6897 1.0697 9.84744 1.06154 9.21463 1.52012L6.56024 3.4486V3.06006C6.56024 2.59431 6.1813 2.21537 5.71555 2.21537H4.26473C3.79898 2.21537 3.42004 2.59426 3.42004 3.06006V5.7301L1.10329 7.41329C0.315694 7.98404 0.139256 9.08912 0.709913 9.87676C0.986381 10.2583 1.3949 10.5093 1.86023 10.5836C1.95435 10.5986 2.04857 10.6061 2.14208 10.6061C2.51076 10.6061 2.86916 10.4906 3.1738 10.2698L3.42008 10.0909V16.9965C3.42008 18.2985 4.47932 19.3577 5.78123 19.3577H10.714C11.912 21.4249 14.1487 22.8184 16.705 22.8184C20.5204 22.8184 23.6243 19.7144 23.6243 15.8992C23.6243 13.2252 22.0995 10.9008 19.8738 9.7494ZM4.17004 3.06006C4.17004 3.00873 4.2134 2.96537 4.26473 2.96537H5.7156C5.76693 2.96537 5.81029 3.00873 5.81029 3.06006V3.99353L4.17008 5.18518L4.17004 3.06006ZM2.73337 9.66282C2.51399 9.82178 2.24568 9.88557 1.97849 9.84306C1.71102 9.80035 1.47618 9.65603 1.31732 9.4367C0.989241 8.98398 1.09063 8.34873 1.54377 8.02037L9.65512 2.12715C10.0137 1.86737 10.5103 1.87253 10.8626 2.13981C10.8647 2.14135 10.8667 2.14285 10.8688 2.1444L18.9568 8.02065C19.4095 8.34873 19.5109 8.98398 19.1829 9.4367C19.1824 9.43731 19.1819 9.43787 19.1814 9.43848C18.4487 9.15667 17.6564 8.99612 16.829 8.98149L10.4705 4.36178C10.339 4.26629 10.161 4.26629 10.0296 4.36178L2.73337 9.66282ZM4.17008 16.9965V9.54596L10.2501 5.12865L15.6595 9.05884C14.1241 9.29256 12.7531 10.0329 11.7225 11.1032C11.5705 11.0426 11.4081 11.0105 11.241 11.0105H9.25916C8.53724 11.0105 7.94985 11.5979 7.94985 12.3198V18.6077H5.78123C4.89285 18.6077 4.17008 17.8849 4.17008 16.9965ZM8.69985 18.6077V12.3199C8.69985 12.0115 8.95077 11.7606 9.25916 11.7606H11.1632C10.2985 12.9156 9.7858 14.3486 9.7858 15.8992C9.7858 16.8599 9.98282 17.7754 10.3382 18.6077H8.69985ZM16.705 22.0684C13.3033 22.0684 10.5358 19.3009 10.5358 15.8992C10.5358 12.4974 13.3033 9.72995 16.705 9.72995C20.1067 9.72995 22.8743 12.4974 22.8743 15.8992C22.8743 19.3009 20.1068 22.0684 16.705 22.0684ZM19.3842 18.2367C19.313 18.1484 19.2056 18.0971 19.0922 18.0971C18.9787 18.0971 18.8714 18.1485 18.8002 18.2367C18.7562 18.2912 18.7072 18.3499 18.6554 18.4118C18.2902 18.8483 17.8358 19.3916 17.8358 19.9541C17.8358 20.6707 18.3994 21.2537 19.0922 21.2537C19.7849 21.2537 20.3485 20.6707 20.3485 19.9541C20.3485 19.3916 19.8941 18.8483 19.529 18.4118C19.4772 18.3499 19.4281 18.2912 19.3842 18.2367ZM19.0922 20.5037C18.813 20.5037 18.5858 20.2571 18.5858 19.9541C18.5858 19.7128 18.8541 19.3514 19.0922 19.0599C19.3302 19.3514 19.5985 19.7128 19.5985 19.9541C19.5985 20.2572 19.3714 20.5037 19.0922 20.5037ZM20.3674 16.207H20.3166C20.2057 15.3952 19.8261 14.6451 19.226 14.0653C18.5518 13.4139 17.6723 13.0485 16.7429 13.0319C16.5218 12.8181 16.2503 12.6679 15.9555 12.5936V11.9699H16.5218C16.728 11.9699 16.8968 11.8012 16.8968 11.5949C16.8968 11.3886 16.7281 11.2199 16.5218 11.2199H14.6392C14.4329 11.2199 14.2642 11.3887 14.2642 11.5949C14.2642 11.8012 14.4329 11.9699 14.6392 11.9699H15.2055V12.5703C14.8697 12.6328 14.5591 12.7922 14.3117 13.0313H13.0427C12.8356 13.0313 12.6677 13.1992 12.6677 13.4063V15.1737C12.6677 15.3808 12.8356 15.5487 13.0427 15.5487H14.3117C14.6366 15.8627 15.0703 16.0397 15.527 16.0397C15.9828 16.0397 16.4158 15.8633 16.7405 15.5505C17.1717 15.5745 17.5469 15.8413 17.7243 16.219C17.5621 16.2603 17.442 16.4069 17.442 16.582V17.5372C17.442 17.7443 17.6099 17.9122 17.817 17.9122H20.3674C20.5745 17.9122 20.7424 17.7443 20.7424 17.5372V16.582C20.7424 16.3749 20.5745 16.207 20.3674 16.207ZM16.6767 14.7987H16.5799C16.4691 14.7987 16.3641 14.8477 16.2928 14.9325C16.1021 15.1595 15.823 15.2897 15.527 15.2897C15.231 15.2897 14.9519 15.1595 14.7612 14.9325C14.69 14.8477 14.5849 14.7987 14.4741 14.7987H13.4177V13.7813H14.4741C14.5849 13.7813 14.69 13.7323 14.7612 13.6475C14.9519 13.4205 15.231 13.2903 15.527 13.2903C15.823 13.2903 16.1021 13.4205 16.2928 13.6475C16.3641 13.7323 16.4691 13.7813 16.5799 13.7813H16.6767C18.0979 13.7813 19.3153 14.8385 19.5566 16.207H18.5162C18.2935 15.3946 17.5435 14.7987 16.6767 14.7987ZM19.9924 17.1622H18.1919V16.957H19.9924V17.1622Z" fill="black"/>
</svg>
