<svg width="24" height="24" viewBox="0 0 24 24" fill="none" xmlns="http://www.w3.org/2000/svg">
<g clip-path="url(#clip0_2140_325423)">
<path d="M6.73383 17.5312C6.71679 17.4677 6.68332 17.4097 6.63678 17.3632C6.59024 17.3166 6.53227 17.2832 6.4687 17.2661L4.37733 16.7059C4.31373 16.6888 4.24678 16.6888 4.18319 16.7059C4.1196 16.7229 4.06162 16.7564 4.01508 16.803L2.48433 18.3341C2.43783 18.3806 2.40438 18.4385 2.38733 18.5021C2.37028 18.5656 2.37024 18.6325 2.3872 18.696L2.94745 20.7874C2.96449 20.8509 2.99796 20.9089 3.0445 20.9554C3.09104 21.002 3.14901 21.0355 3.21258 21.0525L5.30395 21.6127C5.3355 21.6212 5.36803 21.6255 5.4007 21.6255C5.50015 21.6255 5.59552 21.586 5.66583 21.5156L7.19695 19.9849C7.24351 19.9383 7.277 19.8803 7.29405 19.8168C7.3111 19.7532 7.31111 19.6862 7.29408 19.6226L6.73383 17.5312ZM5.28895 20.8312L3.6157 20.3812L3.16758 18.7125L4.39233 17.4877L6.0652 17.9377L6.5152 19.6106L5.28895 20.8312Z" fill="black"/>
<path d="M23.1373 17.835L21.0148 15.7125C20.9799 15.6776 20.9384 15.65 20.8927 15.6313C20.8469 15.6126 20.798 15.6032 20.7486 15.6037C20.6998 15.6033 20.6513 15.6126 20.6062 15.6313C20.5611 15.65 20.5203 15.6776 20.4861 15.7125L20.2311 15.9675C19.7818 15.4497 19.5006 14.8076 19.4248 14.1262L19.1548 11.7187C19.0706 10.9567 18.7309 10.2456 18.1911 9.70124L18.1011 9.61124L18.5848 9.12374C18.619 9.08782 18.6604 9.05955 18.7063 9.04081C18.7522 9.02206 18.8015 9.01326 18.8511 9.01499C19.5423 9.05786 20.2332 8.92572 20.8598 8.63079C21.4864 8.33586 22.0285 7.88767 22.436 7.32767C22.8435 6.76767 23.1032 6.11395 23.191 5.42699C23.2789 4.74002 23.192 4.042 22.9386 3.39749C22.9162 3.33915 22.8796 3.28733 22.8321 3.24672C22.7847 3.20612 22.7278 3.17802 22.6667 3.16498C22.6056 3.15194 22.5422 3.15437 22.4823 3.17206C22.4224 3.18974 22.3678 3.22211 22.3236 3.26624L20.0286 5.56499L18.6336 5.36624L18.4348 3.97124L20.7336 1.67624C20.7777 1.63237 20.81 1.57814 20.8277 1.51852C20.8454 1.4589 20.8478 1.3958 20.8348 1.33499C20.8216 1.27375 20.7935 1.21672 20.7529 1.16897C20.7123 1.12121 20.6606 1.08421 20.6023 1.06124C19.9578 0.807784 19.2598 0.720963 18.5728 0.808806C17.8859 0.896648 17.2321 1.15632 16.6721 1.56379C16.1121 1.97127 15.664 2.51339 15.369 3.14001C15.0741 3.76663 14.9419 4.45751 14.9848 5.14874C14.9857 5.19817 14.9765 5.24725 14.9578 5.29302C14.9391 5.33878 14.9113 5.38028 14.8761 5.41499L13.3273 6.96374L12.2661 5.90249C12.0647 5.69888 11.809 5.5575 11.5294 5.49521C11.2499 5.43292 10.9584 5.45234 10.6896 5.55116C10.4208 5.64998 10.1861 5.82403 10.0135 6.05255C9.84087 6.28107 9.73763 6.55442 9.71607 6.83999C9.43917 6.76739 9.14721 6.77622 8.8752 6.86542C8.60319 6.95463 8.3627 7.12042 8.18258 7.3429C8.00245 7.56539 7.89034 7.83512 7.8597 8.11973C7.82906 8.40435 7.88118 8.69176 8.00982 8.94749C7.71356 8.99755 7.4399 9.13766 7.22608 9.34874C7.04163 9.53414 6.9092 9.76478 6.84206 10.0175C6.77492 10.2703 6.77545 10.5363 6.84357 10.7887C6.55825 10.8081 6.28459 10.9095 6.05551 11.0808C5.82644 11.252 5.65168 11.4857 5.55227 11.7538C5.45285 12.022 5.433 12.3132 5.4951 12.5923C5.5572 12.8715 5.69861 13.1268 5.90232 13.3275L6.43107 13.8562L5.35482 14.9325C5.32001 14.9686 5.27797 14.997 5.23144 15.0157C5.18491 15.0344 5.13495 15.0431 5.08483 15.0412C5.00233 15.0375 4.92357 15.0375 4.83732 15.0337C4.29562 15.0335 3.75918 15.1399 3.25861 15.347C2.75805 15.5541 2.30318 15.8577 1.91996 16.2406C1.14602 17.0138 0.710947 18.0628 0.71045 19.1569C0.709952 20.2509 1.14407 21.3003 1.91731 22.0742C2.69054 22.8482 3.73956 23.2832 4.83357 23.2837H4.84482C5.3863 23.2835 5.92242 23.1767 6.42259 22.9693C6.92276 22.7619 7.37717 22.4579 7.75988 22.0749C8.14258 21.6918 8.44608 21.2371 8.65304 20.7368C8.86 20.2364 8.96637 19.7002 8.96607 19.1587C8.96607 19.0762 8.96232 18.9937 8.95857 18.915C8.95616 18.8648 8.96463 18.8147 8.9834 18.7681C9.00217 18.7215 9.0308 18.6795 9.06732 18.645L10.1436 17.5687L14.3886 21.81L14.1223 22.0762C14.0869 22.111 14.0587 22.1524 14.0394 22.1981C14.0201 22.2438 14.01 22.2929 14.0098 22.3425C14.01 22.3916 14.0201 22.4401 14.0394 22.4852C14.0587 22.5303 14.0869 22.571 14.1223 22.605L14.6511 23.1375C14.7224 23.2069 14.8178 23.2458 14.9173 23.2462C15.0167 23.2452 15.1119 23.2063 15.1836 23.1375C15.2538 23.0667 15.2933 22.971 15.2933 22.8712C15.2933 22.7715 15.2538 22.6758 15.1836 22.605L14.9173 22.3425L20.7486 16.5075L22.6048 18.3637C22.6756 18.434 22.7713 18.4734 22.8711 18.4734C22.9708 18.4734 23.0665 18.434 23.1373 18.3637C23.2072 18.2935 23.2464 18.1984 23.2464 18.0994C23.2464 18.0003 23.2072 17.9053 23.1373 17.835ZM15.4048 5.94374C15.5158 5.83497 15.6023 5.70378 15.6586 5.55893C15.7148 5.41408 15.7395 5.2589 15.7311 5.10374C15.7002 4.58899 15.7878 4.07402 15.9871 3.59841C16.1864 3.1228 16.4921 2.69923 16.8807 2.36024C17.2693 2.02126 17.7304 1.7759 18.2287 1.64302C18.7269 1.51014 19.249 1.49328 19.7548 1.59374L17.7748 3.57374C17.7333 3.61485 17.7019 3.66503 17.683 3.72033C17.6641 3.77564 17.6583 3.83457 17.6661 3.89249L17.9323 5.74874C17.9437 5.82924 17.981 5.90386 18.0385 5.96135C18.096 6.01885 18.1706 6.05609 18.2511 6.06749L20.1073 6.33374C20.1652 6.34148 20.2242 6.33569 20.2795 6.31682C20.3348 6.29796 20.385 6.26652 20.4261 6.22499L22.4061 4.24499C22.5065 4.75078 22.4897 5.27288 22.3568 5.77113C22.2239 6.26939 21.9785 6.73055 21.6396 7.11915C21.3006 7.50775 20.877 7.81344 20.4014 8.01273C19.9258 8.21202 19.4108 8.2996 18.8961 8.26874C18.7409 8.26058 18.5859 8.28545 18.441 8.34169C18.2962 8.39793 18.165 8.48426 18.0561 8.59499L17.5686 9.08249L16.5073 8.02124C16.2213 7.74844 15.8413 7.59624 15.4461 7.59624C15.0508 7.59624 14.6708 7.74844 14.3848 8.02124L13.8561 7.49249L15.4048 5.94374ZM10.6723 6.43124C10.8158 6.29577 11.0056 6.2203 11.2029 6.2203C11.4003 6.2203 11.5901 6.29577 11.7336 6.43124L13.8561 8.55374L12.7948 9.61499L10.6723 7.49249C10.5327 7.35119 10.4544 7.16053 10.4544 6.96186C10.4544 6.7632 10.5327 6.57254 10.6723 6.43124ZM8.81607 7.75874C8.95867 7.62156 9.14884 7.54494 9.3467 7.54494C9.54456 7.54494 9.73473 7.62156 9.87733 7.75874L12.2661 10.1437L12.3111 10.2C12.2407 10.3482 12.2042 10.5103 12.2042 10.6744C12.2042 10.8385 12.2407 11.0005 12.3111 11.1487L12.2661 11.205C12.1226 11.3405 11.9328 11.4159 11.7354 11.4159C11.5381 11.4159 11.3483 11.3405 11.2048 11.205L10.2748 10.275L8.81607 8.81624C8.74655 8.74685 8.69139 8.66444 8.65375 8.57371C8.61611 8.48298 8.59674 8.38572 8.59674 8.28749C8.59674 8.18926 8.61611 8.092 8.65375 8.00127C8.69139 7.91054 8.74655 7.82812 8.81607 7.75874ZM7.75857 9.87749C7.8991 9.7378 8.08919 9.65939 8.28732 9.65939C8.48546 9.65939 8.67555 9.7378 8.81607 9.87749L9.74607 10.8075L10.6723 11.7337H10.6761L11.2048 12.2662C11.3456 12.407 11.4246 12.5978 11.4246 12.7969C11.4246 12.9959 11.3456 13.1868 11.2048 13.3275C11.0641 13.4682 10.8732 13.5473 10.6742 13.5473C10.4752 13.5473 10.2843 13.4682 10.1436 13.3275L8.02107 11.205L7.75857 10.9387C7.68884 10.8691 7.63352 10.7864 7.59578 10.6953C7.55804 10.6043 7.53861 10.5067 7.53861 10.4081C7.53861 10.3096 7.55804 10.212 7.59578 10.1209C7.63352 10.0299 7.68884 9.94714 7.75857 9.87749ZM6.20982 12.2662C6.20952 12.1672 6.22892 12.0692 6.26691 11.9777C6.3049 11.8863 6.3607 11.8034 6.43107 11.7337C6.57206 11.5948 6.7619 11.5167 6.95982 11.5162C7.05859 11.5153 7.15656 11.534 7.24799 11.5713C7.33943 11.6087 7.42249 11.6639 7.49232 11.7337L9.61482 13.8562L9.87733 14.1225C10.0181 14.2632 10.0971 14.4541 10.0971 14.6531C10.0971 14.8521 10.0181 15.043 9.87733 15.1837C9.73659 15.3245 9.54572 15.4035 9.3467 15.4035C9.14768 15.4035 8.95681 15.3245 8.81607 15.1837L6.43107 12.795C6.36105 12.7259 6.30544 12.6435 6.26746 12.5528C6.22948 12.462 6.20989 12.3646 6.20982 12.2662ZM14.9173 21.2812L10.6723 17.04L14.6511 13.0612C14.7213 12.9904 14.7608 12.8947 14.7608 12.795C14.7608 12.6952 14.7213 12.5995 14.6511 12.5287C14.5808 12.4589 14.4858 12.4197 14.3867 12.4197C14.2876 12.4197 14.1926 12.4589 14.1223 12.5287L8.53482 18.1162C8.42427 18.2253 8.33805 18.3566 8.28183 18.5013C8.2256 18.6461 8.20063 18.8011 8.20857 18.9562C8.21232 19.0237 8.21607 19.0912 8.21607 19.1587C8.21608 20.0532 7.86101 20.9111 7.22889 21.5439C6.59676 22.1767 5.73928 22.5327 4.84482 22.5337H4.83357C3.93847 22.5332 3.08022 22.1772 2.44764 21.5439C1.81505 20.9106 1.45995 20.052 1.46045 19.1569C1.46095 18.2618 1.817 17.4035 2.45029 16.7709C3.08358 16.1383 3.94222 15.7832 4.83732 15.7837C4.89357 15.7837 4.97607 15.7875 5.04357 15.7912C5.19858 15.7983 5.35336 15.7729 5.49801 15.7168C5.64265 15.6606 5.77397 15.5748 5.88357 15.465L6.95982 14.385L8.28732 15.7125C8.51887 15.9456 8.82073 16.0959 9.14627 16.1403C9.4718 16.1847 9.80289 16.1206 10.0884 15.958C10.3739 15.7955 10.5979 15.5434 10.7258 15.2408C10.8537 14.9381 10.8784 14.6018 10.7961 14.2837C11.0386 14.2659 11.273 14.1888 11.4787 14.0591C11.6845 13.9295 11.8552 13.7513 11.9759 13.5402C12.0966 13.3291 12.1637 13.0916 12.1711 12.8485C12.1785 12.6055 12.1262 12.3643 12.0186 12.1462C12.3133 12.0912 12.5842 11.9472 12.7948 11.7337C12.8061 11.7262 12.8098 11.715 12.8211 11.7075C13.1821 11.9455 13.614 12.0519 14.0443 12.0089C14.4745 11.9659 14.8768 11.776 15.1836 11.4712C15.2545 11.4026 15.3493 11.3643 15.4479 11.3643C15.5466 11.3643 15.6414 11.4026 15.7123 11.4712C15.7472 11.5054 15.7748 11.5463 15.7935 11.5914C15.8122 11.6365 15.8216 11.6849 15.8211 11.7337C15.8216 11.7831 15.8122 11.8321 15.7935 11.8778C15.7749 11.9235 15.7472 11.9651 15.7123 12L15.4461 12.2662C14.9544 12.7589 14.6782 13.4265 14.6782 14.1225C14.6782 14.8185 14.9544 15.4861 15.4461 15.9787L15.7123 16.2412C15.7465 16.2768 15.7876 16.3051 15.833 16.3245C15.8785 16.3438 15.9273 16.3538 15.9767 16.3538C16.0261 16.3538 16.0749 16.3438 16.1204 16.3245C16.1658 16.3051 16.2069 16.2768 16.2411 16.2412C16.3109 16.171 16.3501 16.0759 16.3501 15.9769C16.3501 15.8778 16.3109 15.7828 16.2411 15.7125L15.9786 15.4462C15.6271 15.0946 15.4296 14.6178 15.4296 14.1206C15.4296 13.6234 15.6271 13.1466 15.9786 12.795L16.2411 12.5287C16.3457 12.4244 16.4286 12.3005 16.4853 12.1641C16.5419 12.0277 16.571 11.8814 16.571 11.7337C16.571 11.586 16.5419 11.4398 16.4853 11.3034C16.4286 11.1669 16.3457 11.043 16.2411 10.9387C16.0267 10.7347 15.742 10.6209 15.4461 10.6209C15.1501 10.6209 14.8655 10.7347 14.6511 10.9387C14.4401 11.1494 14.1542 11.2677 13.8561 11.2677C13.5579 11.2677 13.272 11.1494 13.0611 10.9387C12.9912 10.8685 12.952 10.7734 12.952 10.6744C12.952 10.5753 12.9912 10.4802 13.0611 10.41L14.9173 8.55374C15.0599 8.41656 15.2501 8.33994 15.4479 8.33994C15.6458 8.33994 15.836 8.41656 15.9786 8.55374L17.6586 10.23C18.0782 10.6549 18.3436 11.208 18.4123 11.8012L18.6823 14.2087C18.7769 15.0579 19.1318 15.8569 19.6986 16.4962L14.9173 21.2812Z" fill="black"/>
</g>
<defs>
<clipPath id="clip0_2140_325423">
<rect width="24" height="24" fill="white"/>
</clipPath>
</defs>
</svg>
