<svg width="24" height="24" viewBox="0 0 24 24" fill="none" xmlns="http://www.w3.org/2000/svg">
<path d="M21.5238 2H2.47619C2.21329 2 2 2.21329 2 2.47619V21.5238C2 21.7867 2.21329 22 2.47619 22H21.5238C21.7867 22 22 21.7867 22 21.5238V2.47619C22 2.21329 21.7867 2 21.5238 2ZM15.6508 2.95238H21.0476V7.07937H15.6508V2.95238ZM14.6984 15.9683H9.30159V2.95238H14.6984V15.9683ZM8.34921 7.07937H2.95238V2.95238H8.34921V7.07937ZM2.95238 8.03175H8.34921V21.0476H2.95238V8.03175ZM9.30159 16.9206H14.6984V21.0476H9.30159V16.9206ZM15.6508 8.03175H21.0476V21.0476H15.6508V8.03175Z" fill="black"/>
</svg>
