<svg width="24" height="24" viewBox="0 0 24 24" fill="none" xmlns="http://www.w3.org/2000/svg">
<g clip-path="url(#clip0_2140_325545)">
<path d="M21.3913 0H2.60869C1.17028 0 0 1.17028 0 2.60869V21.3913C0 22.8297 1.17028 24 2.60869 24H21.3913C22.8297 24 24 22.8297 24 21.3913V2.60869C24 1.17028 22.8297 0 21.3913 0ZM1.5652 2.60869C1.5652 2.0333 2.0333 1.5652 2.60869 1.5652H11.2174V5.03517L5.03522 11.2174H1.5652V2.60869ZM11.2174 22.4348H2.60869C2.0333 22.4348 1.5652 21.9667 1.5652 21.3913V12.7826H5.03517L11.2174 18.9648V22.4348ZM6.46613 12L12 6.46613L17.5339 12L12 17.5339L6.46613 12ZM22.4348 21.3913C22.4348 21.9667 21.9667 22.4348 21.3913 22.4348H12.7826V18.9648L18.9648 12.7826H22.4348V21.3913ZM22.4348 11.2174H18.9648L12.7826 5.03522V1.5652H21.3913C21.9667 1.5652 22.4348 2.0333 22.4348 2.60869V11.2174Z" fill="black"/>
</g>
<defs>
<clipPath id="clip0_2140_325545">
<rect width="24" height="24" fill="white"/>
</clipPath>
</defs>
</svg>
