<svg width="24" height="24" viewBox="0 0 24 24" fill="none" xmlns="http://www.w3.org/2000/svg">
<g clip-path="url(#clip0_2140_325489)">
<path d="M15.6337 7.27228C15.3853 7.27228 15.1836 7.48175 15.1836 7.74085C15.1836 7.99976 15.3853 8.2096 15.6337 8.2096C15.8827 8.2096 16.0838 7.99976 16.0838 7.74085C16.0838 7.48175 15.8827 7.27228 15.6337 7.27228Z" fill="black"/>
<path d="M7.45596 15.7891C7.207 15.7891 7.00586 15.9991 7.00586 16.2578C7.00586 16.5171 7.207 16.7266 7.45596 16.7266C7.70439 16.7266 7.90606 16.5171 7.90606 16.2578C7.90606 15.9991 7.70439 15.7891 7.45596 15.7891Z" fill="black"/>
<path d="M22.5075 2.88341C22.3556 2.8466 22.1959 2.89439 22.0862 3.00975L20.2202 4.96843H19.3257L18.3409 3.90587V2.96123L20.1802 1.0172C20.289 0.902206 20.3333 0.736861 20.2973 0.579574C20.2614 0.422469 20.1503 0.29576 20.0033 0.244124C19.5412 0.0818927 19.0577 -0.00032174 18.566 -0.00032174C17.1 -0.00032174 15.7681 0.711593 14.9119 1.95287C14.1105 3.11485 13.8635 4.53887 14.2174 5.90172L10.902 9.35454L5.37845 3.58891V2.45732C5.37845 2.29271 5.29546 2.14 5.15991 2.0554L1.9774 0.0665118C1.80017 -0.0442671 1.57354 -0.0151533 1.42761 0.137007L0.154677 1.46251C0.008747 1.61467 -0.0192083 1.85069 0.0869867 2.03526L1.99639 5.34966C2.07761 5.49083 2.22407 5.57707 2.38213 5.57726L3.46835 5.57762L8.99242 11.3433L5.68965 14.7829C4.38103 14.4145 3.01297 14.6721 1.8967 15.5073C0.70552 16.3984 0.0224609 17.7851 0.0224609 19.3118C0.0224609 19.8238 0.101404 20.3275 0.25718 20.8085C0.306937 20.9625 0.429835 21.0788 0.581743 21.1154C0.733827 21.1522 0.893295 21.1044 1.00318 20.9891L2.86898 19.0306H3.76847L4.79332 20.0979V21.0347L2.91276 22.9778C2.80199 23.0922 2.7561 23.2583 2.79144 23.4167C2.82661 23.5749 2.93825 23.7029 3.08612 23.7547C3.54799 23.9169 4.03167 23.9991 4.52326 23.9991C5.98925 23.9991 7.32055 23.2876 8.17644 22.0471C8.97835 20.8845 9.22573 19.46 8.87198 18.0971L11.5246 15.3346L12.1322 16.022L11.8534 16.3122C11.6775 16.4953 11.6775 16.7921 11.8534 16.9752C12.0292 17.1581 12.314 17.1581 12.49 16.9752L12.7425 16.7123L18.4436 23.1616C18.4478 23.1664 18.4522 23.171 18.4566 23.1755C19.5115 24.2742 21.2207 24.2745 22.2761 23.1754C23.3286 22.0787 23.3286 20.2944 22.2761 19.1978C22.2715 19.193 22.2668 19.1884 22.262 19.1838L16.0597 13.2578L16.3093 12.9978C16.4851 12.8149 16.4851 12.5181 16.3093 12.335C16.1335 12.1518 15.8487 12.1518 15.6727 12.335L15.3958 12.6235L14.7345 11.9914L17.3999 9.21557C17.7788 9.32103 18.1698 9.3745 18.566 9.3745C21.0478 9.3745 23.0668 7.27172 23.0668 4.68718C23.0668 4.17503 22.9878 3.67149 22.832 3.19029C22.7823 3.0363 22.6594 2.92003 22.5075 2.88341ZM3.97365 4.77782C3.88926 4.68974 3.7748 4.64488 3.65524 4.64488L2.63725 4.64452L1.03975 1.86681L1.81564 1.05876L4.47825 2.72282V3.78301C4.47825 3.90715 4.52555 4.02617 4.60977 4.11406L10.2655 10.0176L9.62889 10.6804L3.97365 4.77782ZM15.4225 13.9214L21.646 19.8674C22.3412 20.5991 22.3391 21.7837 21.6395 22.5127C20.9383 23.2429 19.8032 23.2451 19.0992 22.5191L13.3795 16.0487L15.4225 13.9214ZM14.7586 13.2869L12.7692 15.3584L12.1616 14.671L14.0973 12.6548L14.7586 13.2869ZM18.566 8.437C18.1723 8.437 17.7852 8.37127 17.4156 8.24163C17.2536 8.18505 17.0747 8.22863 16.9537 8.35442C14.6972 10.7044 9.83512 15.7678 8.04475 17.6326C7.92379 17.7585 7.88177 17.9449 7.93645 18.1138C8.31059 19.2708 8.13161 20.5049 7.44521 21.5001C6.76074 22.4924 5.69563 23.0616 4.52326 23.0616C4.39157 23.0616 4.26059 23.0541 4.13083 23.0397L5.56042 21.5624C5.64552 21.4745 5.69352 21.3547 5.69352 21.2297V19.9036C5.69352 19.7793 5.64605 19.6601 5.56165 19.5722L4.27307 18.2302C4.18868 18.1423 4.07422 18.0929 3.95484 18.0929H2.68155C2.56147 18.0929 2.44648 18.1429 2.36191 18.2315L0.943579 19.7203C0.929514 19.5852 0.922481 19.4488 0.922481 19.3116C0.922481 18.0905 1.46893 16.9814 2.42187 16.2686C3.37727 15.5538 4.56247 15.3672 5.67365 15.757C5.83558 15.814 6.01456 15.7702 6.13553 15.6442C6.16032 15.6186 15.0381 6.37267 15.0445 6.36608C15.1654 6.2401 15.2073 6.05388 15.1528 5.88506C14.7785 4.72801 14.9571 3.49425 15.643 2.4998C16.328 1.50664 17.3932 0.937179 18.5658 0.937179C18.7015 0.937179 18.8364 0.945052 18.97 0.960433L17.5701 2.44011C17.4871 2.52782 17.4407 2.64592 17.4407 2.76897V4.09502C17.4407 4.2166 17.4859 4.33324 17.567 4.42058L18.8105 5.76256C18.8953 5.85411 19.0122 5.90575 19.1344 5.90575H20.4077C20.5276 5.90575 20.6426 5.85594 20.7271 5.76714L22.1455 4.27849C22.1595 4.41362 22.1666 4.55003 22.1666 4.68718C22.1666 6.75481 20.5513 8.437 18.566 8.437Z" fill="black"/>
<path d="M14.0424 8.73511L8.41005 14.6009C8.23441 14.7838 8.23441 15.0806 8.41005 15.2637C8.58587 15.4468 8.87088 15.4468 9.0467 15.2637L14.6791 9.39795C14.8549 9.21503 14.8549 8.91821 14.6791 8.73511C14.5033 8.552 14.2182 8.552 14.0424 8.73511Z" fill="black"/>
<path d="M19.7304 21.1872C19.9062 21.3697 20.1912 21.3697 20.367 21.1861C20.5425 21.0028 20.5419 20.706 20.3659 20.5233L16.3089 16.3116C16.1329 16.1289 15.8477 16.1294 15.6724 16.3127C15.4968 16.4962 15.4973 16.7928 15.6733 16.9756L19.7304 21.1872Z" fill="black"/>
</g>
<defs>
<clipPath id="clip0_2140_325489">
<rect width="24" height="24" fill="white"/>
</clipPath>
</defs>
</svg>
