<svg width="24" height="24" viewBox="0 0 24 24" fill="none" xmlns="http://www.w3.org/2000/svg">
<path fill-rule="evenodd" clip-rule="evenodd" d="M16.8048 2H7.19518C6.86253 2 6.54488 2.13768 6.31873 2.37985C6.09253 2.62202 5.97828 2.94678 6.00342 3.27608L6.30848 7.2735V12.791C6.30848 13.3454 6.53034 13.8771 6.92528 14.2691C7.32022 14.6611 7.85585 14.8814 8.41435 14.8814H9.89413V19.9096C9.89413 21.0641 10.837 22 12 22C13.163 22 14.1059 21.0641 14.1059 19.9096V14.8814H15.5857C16.1442 14.8814 16.6798 14.6611 17.0747 14.2691C17.4697 13.8771 17.6915 13.3454 17.6915 12.791V7.2735L17.9966 3.27608C18.0217 2.94678 17.9075 2.62202 17.6813 2.37985C17.4551 2.13768 17.1375 2 16.8048 2ZM16.667 9.82417V12.791C16.667 13.0757 16.5531 13.3487 16.3503 13.55C16.1475 13.7513 15.8724 13.8644 15.5857 13.8644H13.5936C13.3107 13.8644 13.0814 14.0921 13.0814 14.3729V19.9096C13.0814 20.5025 12.5972 20.983 12 20.983C11.4028 20.983 10.9186 20.5025 10.9186 19.9096C10.9186 19.9096 10.9186 14.3729 10.9186 14.3729C10.9186 14.0921 10.6893 13.8644 10.4064 13.8644H8.41435C8.12756 13.8644 7.85251 13.7513 7.64968 13.55C7.4469 13.3487 7.33296 13.0757 7.33296 12.791V9.82417H16.667ZM7.33296 7.76272V8.80721H16.667V7.76272H7.33296ZM15.7871 3.01695L15.4905 5.28576C15.4541 5.56408 15.197 5.76069 14.9166 5.72462C14.6363 5.6885 14.4382 5.43323 14.4746 5.15494L14.754 3.01695H7.19518C7.14767 3.01695 7.10231 3.03665 7.07 3.07124C7.03768 3.10583 7.02137 3.15223 7.02494 3.19928L7.29562 6.74576H16.7044L16.9751 3.19928C16.9786 3.15223 16.9623 3.10583 16.93 3.07124C16.8977 3.03665 16.8523 3.01695 16.8048 3.01695H15.7871Z" fill="#0F0E0E"/>
</svg>
