<svg width="24" height="24" viewBox="0 0 24 24" fill="none" xmlns="http://www.w3.org/2000/svg">
<path d="M19.0979 16.1078C17.6089 17.5022 16.915 18.6183 16.915 19.6191C16.915 20.9317 18.0558 22 19.4574 22C20.859 22 21.9998 20.9317 21.9998 19.6191C21.9998 18.6183 21.3059 17.5022 19.8169 16.1078C19.6183 15.9218 19.2965 15.9218 19.0979 16.1078ZM19.4574 21.0476C18.6166 21.0476 17.932 20.4065 17.932 19.6191C17.932 18.9792 18.4444 18.1427 19.4574 17.129C20.4704 18.1427 20.9828 18.9792 20.9828 19.6191C20.9828 20.4065 20.2982 21.0476 19.4574 21.0476Z" fill="black"/>
<path d="M16.0678 7.71428H14.2769C13.969 7.37946 13.5989 7.0992 13.1864 6.88839V5.49206H15.3898C16.418 5.49206 17.2542 4.70895 17.2542 3.74603C17.2542 2.78311 16.418 2 15.3898 2H7.25424C6.22603 2 5.38983 2.78311 5.38983 3.74603C5.38983 4.70895 6.22603 5.49206 7.25424 5.49206H9.45763V6.88839C9.04515 7.0992 8.67505 7.37946 8.36719 7.71428H5.72881V7.55555C5.72881 6.59263 4.89261 5.80952 3.86441 5.80952H2.50847C2.22775 5.80952 2 6.02282 2 6.28571V13.9048C2 14.1677 2.22775 14.3809 2.50847 14.3809H3.86441C4.89261 14.3809 5.72881 13.5978 5.72881 12.6349V12.4762H8.36719C9.10805 13.286 10.1713 13.746 11.322 13.746C12.4727 13.746 13.536 13.2866 14.2775 12.4762C14.8145 12.4756 16.0691 12.47 16.0678 12.4762C16.5352 12.4762 16.9153 12.8321 16.9153 13.2698V14.5397C16.9153 14.8026 17.143 15.0159 17.4237 15.0159H21.4915C21.7722 15.0159 22 14.8026 22 14.5397V13.2698C22 10.2062 19.3391 7.71428 16.0678 7.71428ZM4.71186 12.6349C4.71186 13.0727 4.33183 13.4286 3.86441 13.4286H3.01695V6.7619H3.86441C4.33183 6.7619 4.71186 7.11781 4.71186 7.55555V12.6349ZM20.9831 14.0635H17.9322V13.2698C17.9322 12.3069 17.096 11.5238 16.0678 11.5238C13.869 11.5238 13.7075 11.5238 13.5916 11.7582C13.0414 12.4167 12.2172 12.7936 11.322 12.7936C10.407 12.7936 9.56687 12.4005 9.01735 11.7142C8.92135 11.5945 8.77105 11.5238 8.61083 11.5238H5.72881V8.66666H8.61017C8.77039 8.66666 8.92068 8.59598 9.01668 8.47631C9.31661 8.10243 9.71517 7.80667 10.1694 7.62128C10.3547 7.54563 10.4746 7.37388 10.4746 7.18477V5.01587C10.4746 4.75298 10.2468 4.53968 9.9661 4.53968H7.25424C6.78681 4.53968 6.40678 4.18378 6.40678 3.74603C6.40678 3.30828 6.78681 2.95238 7.25424 2.95238H15.3898C15.8573 2.95238 16.2373 3.30828 16.2373 3.74603C16.2373 4.18378 15.8573 4.53968 15.3898 4.53968H12.678C12.3972 4.53968 12.1695 4.75298 12.1695 5.01587V7.18477C12.1695 7.37388 12.2893 7.54563 12.4747 7.62128C12.9289 7.80667 13.3275 8.10243 13.6274 8.47631C13.7234 8.59598 13.8737 8.66666 14.0339 8.66666H16.0678C18.7783 8.66666 20.9831 10.7314 20.9831 13.2698V14.0635Z" fill="black"/>
</svg>
