<svg width="24" height="24" viewBox="0 0 24 24" fill="none" xmlns="http://www.w3.org/2000/svg">
<path d="M21.8667 8.49998C21.4933 8.49998 21.1253 8.59997 20.8 8.77997V8.49998C20.8 6.84 19.904 6 18.1334 6H5.86665C4.096 6 3.2 6.84 3.2 8.49998V8.77997C2.87465 8.59997 2.50665 8.50495 2.13335 8.49998C0.95465 8.49998 0 9.39502 0 10.5V14.5C0 15.605 0.95465 16.5 2.13335 16.5H3.2V17.5C3.2 17.775 3.44 18 3.73335 18C4.0267 18 4.2667 17.775 4.2667 17.5V16.5H19.7334V17.5C19.7334 17.775 19.9734 18 20.2667 18C20.56 18 20.8 17.775 20.8 17.5V16.5H21.8613C23.04 16.5 24 15.605 24 14.5V10.5C24 9.39502 23.0454 8.49998 21.8667 8.49998ZM4.26665 8.49998C4.26665 7.395 4.68265 6.99998 5.86665 6.99998H18.1333C19.3119 6.99998 19.7333 7.395 19.7333 8.49998V12H4.26665V8.49998ZM22.9333 14.5C22.9333 15.055 22.448 15.5 21.8613 15.5H2.13335C1.5467 15.5 1.0667 15.05 1.0667 14.5V10.5C1.0667 9.95002 1.5467 9.50002 2.13335 9.50002C2.72 9.50002 3.2 9.95002 3.2 10.5V13H20.8V10.5C20.8 9.95002 21.28 9.50002 21.8667 9.50002C22.4533 9.50002 22.9333 9.95002 22.9333 10.5V14.5H22.9333Z" fill="black"/>
</svg>
