<svg width="24" height="24" viewBox="0 0 24 24" fill="none" xmlns="http://www.w3.org/2000/svg">
<path d="M11.625 6.375C11.2272 6.375 10.8456 6.53304 10.5643 6.81434C10.283 7.09564 10.125 7.47718 10.125 7.875V15C10.125 15.3978 10.283 15.7794 10.5643 16.0607C10.8456 16.342 11.2272 16.5 11.625 16.5C12.0228 16.5 12.4044 16.342 12.6857 16.0607C12.967 15.7794 13.125 15.3978 13.125 15V7.875C13.125 7.47718 12.967 7.09564 12.6857 6.81434C12.4044 6.53304 12.0228 6.375 11.625 6.375ZM12.375 15C12.375 15.1989 12.296 15.3897 12.1553 15.5303C12.0147 15.671 11.8239 15.75 11.625 15.75C11.4261 15.75 11.2353 15.671 11.0947 15.5303C10.954 15.3897 10.875 15.1989 10.875 15V7.875C10.875 7.67609 10.954 7.48532 11.0947 7.34467C11.2353 7.20402 11.4261 7.125 11.625 7.125C11.8239 7.125 12.0147 7.20402 12.1553 7.34467C12.296 7.48532 12.375 7.67609 12.375 7.875V15Z" fill="black"/>
<path d="M18.75 12.375H19.6275C19.892 12.375 20.1457 12.2699 20.3328 12.0828C20.5199 11.8958 20.625 11.6421 20.625 11.3775V7.9425C20.623 6.93064 20.2202 5.9608 19.5047 5.24531C18.7892 4.52982 17.8193 4.12698 16.8075 4.125H15.75V3.46125C15.75 3.14001 15.6224 2.83192 15.3952 2.60477C15.1681 2.37761 14.86 2.25 14.5387 2.25H8.71122C8.38998 2.25 8.08189 2.37761 7.85474 2.60477C7.62759 2.83192 7.49997 3.14001 7.49997 3.46125V4.125C7.46051 4.12544 7.42133 4.13176 7.38372 4.14375C7.08742 4.18172 6.8092 4.30729 6.58472 4.50438C6.36024 4.70147 6.19972 4.9611 6.12372 5.25H3.74997C3.69022 5.25024 3.63139 5.26475 3.57838 5.29233C3.52537 5.31991 3.47972 5.35976 3.44523 5.40856C3.41074 5.45736 3.38841 5.51369 3.38011 5.57287C3.3718 5.63204 3.37775 5.69234 3.39747 5.74875L5.50122 11.7188L4.87497 18.375C4.56015 18.6111 4.3276 18.9403 4.21026 19.3159C4.09292 19.6916 4.09675 20.0946 4.22119 20.4679C4.34564 20.8413 4.58439 21.166 4.90364 21.3961C5.22289 21.6262 5.60644 21.75 5.99997 21.75H16.5C16.9322 21.7501 17.3512 21.6008 17.6861 21.3275C18.0209 21.0541 18.251 20.6735 18.3375 20.25H18.4162C18.7033 20.249 18.9784 20.1345 19.1815 19.9315C19.3845 19.7285 19.499 19.4534 19.5 19.1663V16.8225C19.8212 16.7396 20.1058 16.5525 20.3093 16.2906C20.5129 16.0287 20.6239 15.7067 20.625 15.375V14.625C20.625 14.5255 20.5855 14.4302 20.5151 14.3598C20.4448 14.2895 20.3494 14.25 20.25 14.25V13.5C20.25 13.4005 20.2105 13.3052 20.1401 13.2348C20.0698 13.1645 19.9744 13.125 19.875 13.125C19.7755 13.125 19.6801 13.1645 19.6098 13.2348C19.5395 13.3052 19.5 13.4005 19.5 13.5V14.25H18.75V13.5C18.75 13.4005 18.7105 13.3052 18.6401 13.2348C18.5698 13.1645 18.4744 13.125 18.375 13.125C18.2755 13.125 18.1801 13.1645 18.1098 13.2348C18.0395 13.3052 18 13.4005 18 13.5V14.25C17.9005 14.25 17.8051 14.2895 17.7348 14.3598C17.6645 14.4302 17.625 14.5255 17.625 14.625V15.375C17.626 15.7067 17.7371 16.0287 17.9406 16.2906C18.1442 16.5525 18.4288 16.7396 18.75 16.8225V19.1663C18.75 19.2548 18.7148 19.3397 18.6522 19.4022C18.5896 19.4648 18.5047 19.5 18.4162 19.5H18.3375C18.2456 19.0505 17.9921 18.6502 17.625 18.375C17.625 18.375 17.625 18.375 17.625 18.3525L16.4662 6.0375C17.0015 6.13566 17.4856 6.41821 17.8343 6.83608C18.1829 7.25395 18.3743 7.78076 18.375 8.325V12C18.375 12.0492 18.3847 12.098 18.4035 12.1435C18.4224 12.189 18.45 12.2303 18.4848 12.2652C18.5196 12.3 18.561 12.3276 18.6065 12.3465C18.652 12.3653 18.7007 12.375 18.75 12.375ZM18.375 15.375V15H19.875V15.375C19.875 15.5739 19.796 15.7647 19.6553 15.9053C19.5147 16.046 19.3239 16.125 19.125 16.125C18.9261 16.125 18.7353 16.046 18.5946 15.9053C18.454 15.7647 18.375 15.5739 18.375 15.375ZM8.24997 3.46125C8.24997 3.33892 8.29857 3.2216 8.38507 3.1351C8.47157 3.0486 8.58889 3 8.71122 3H14.5387C14.6611 3 14.7784 3.0486 14.8649 3.1351C14.9514 3.2216 15 3.33892 15 3.46125V4.125H8.24997V3.46125ZM4.27872 6H6.03747L5.66247 9.9375L4.27872 6ZM17.625 19.875C17.625 20.1734 17.5064 20.4595 17.2955 20.6705C17.0845 20.8815 16.7983 21 16.5 21H5.99997C5.7016 21 5.41546 20.8815 5.20448 20.6705C4.9935 20.4595 4.87497 20.1734 4.87497 19.875C4.87497 19.5766 4.9935 19.2905 5.20448 19.0795C5.41546 18.8685 5.7016 18.75 5.99997 18.75H16.5C16.7983 18.75 17.0845 18.8685 17.2955 19.0795C17.5064 19.2905 17.625 19.5766 17.625 19.875ZM16.05 5.25C15.9976 5.25012 15.9459 5.2612 15.8981 5.28251C15.8503 5.30382 15.8075 5.3349 15.7725 5.37375C15.7374 5.41193 15.7106 5.45698 15.6938 5.50603C15.6771 5.55508 15.6706 5.60709 15.675 5.65875L16.8412 18.0338C16.7286 18.013 16.6145 18.0018 16.5 18H5.99997C5.88548 18.0018 5.77134 18.013 5.65872 18.0338L6.82497 5.625C6.82473 5.43242 6.89858 5.24712 7.03122 5.1075C7.16386 4.96788 7.34513 4.88463 7.53747 4.875H16.8075C17.6207 4.87599 18.4004 5.19949 18.9754 5.77455C19.5505 6.3496 19.874 7.12925 19.875 7.9425V11.3775C19.8755 11.4101 19.8694 11.4426 19.8572 11.4728C19.8449 11.5031 19.8267 11.5306 19.8036 11.5536C19.7805 11.5767 19.753 11.5949 19.7228 11.6072C19.6925 11.6195 19.6601 11.6255 19.6275 11.625H19.125V8.325C19.124 7.50976 18.7997 6.7282 18.2232 6.15174C17.6468 5.57528 16.8652 5.25099 16.05 5.25Z" fill="black"/>
<path d="M15 19.5C14.9005 19.5 14.8052 19.5395 14.7348 19.6098C14.6645 19.6802 14.625 19.7755 14.625 19.875C14.625 19.9745 14.6645 20.0698 14.7348 20.1402C14.8052 20.2105 14.9005 20.25 15 20.25H16.5C16.5995 20.25 16.6948 20.2105 16.7652 20.1402C16.8355 20.0698 16.875 19.9745 16.875 19.875C16.875 19.7755 16.8355 19.6802 16.7652 19.6098C16.6948 19.5395 16.5995 19.5 16.5 19.5H15Z" fill="black"/>
<path d="M13.5 19.5H12C11.9005 19.5 11.8052 19.5395 11.7348 19.6098C11.6645 19.6802 11.625 19.7755 11.625 19.875C11.625 19.9745 11.6645 20.0698 11.7348 20.1402C11.8052 20.2105 11.9005 20.25 12 20.25H13.5C13.5995 20.25 13.6948 20.2105 13.7652 20.1402C13.8355 20.0698 13.875 19.9745 13.875 19.875C13.875 19.7755 13.8355 19.6802 13.7652 19.6098C13.6948 19.5395 13.5995 19.5 13.5 19.5Z" fill="black"/>
</svg>
