<svg width="24" height="24" viewBox="0 0 24 24" fill="none" xmlns="http://www.w3.org/2000/svg">
<path d="M15.3822 10.8764V8.86183C15.3822 7.15638 14.1094 5.74547 12.4658 5.51638V0.829102C12.4658 0.57092 12.2585 0.363647 12.0004 0.363647C11.7422 0.363647 11.5349 0.57092 11.5349 0.829102V5.51638C9.89127 5.74547 8.61854 7.15638 8.61854 8.86183V10.8764C5.6949 12.1673 3.73854 15.0146 3.60763 18.2218C3.604 18.3491 3.64763 18.4727 3.73854 18.5636C3.82581 18.6546 3.94581 18.7055 4.07309 18.7055H7.97127C7.92763 19 7.89854 19.2836 7.89854 19.5309C7.8949 21.7964 9.73854 23.6364 12.0004 23.6364C14.2622 23.6364 16.1058 21.7964 16.1058 19.5309C16.1058 19.2836 16.0767 19 16.0331 18.7055H19.9276C20.0549 18.7055 20.1749 18.6546 20.2622 18.5636C20.3495 18.4727 20.3967 18.3491 20.3931 18.2218C20.2622 15.0109 18.3058 12.1636 15.3822 10.8764ZM9.54945 8.86183C9.54945 7.5091 10.6476 6.41092 12.0004 6.41092C13.3531 6.41092 14.4513 7.5091 14.4513 8.86183V10.7164H9.54945V8.86183ZM15.1749 19.5309C15.1749 21.28 13.7531 22.7055 12.0004 22.7055C10.2476 22.7055 8.82581 21.2836 8.82581 19.5309C8.82581 19.28 8.85854 18.9964 8.90945 18.7055H15.0913C15.1385 19 15.1749 19.2836 15.1749 19.5309ZM4.5749 17.7746C4.86218 15.0582 6.61854 12.6946 9.164 11.6473H14.8367C17.3822 12.6946 19.1385 15.0582 19.4258 17.7746H4.5749Z" fill="black"/>
</svg>
