<svg width="24" height="24" viewBox="0 0 24 24" fill="none" xmlns="http://www.w3.org/2000/svg">
<path d="M22.4092 10.5689C22.4085 10.5684 22.408 10.5678 22.4075 10.5673L13.4323 1.59334C13.0498 1.21065 12.5412 1 12.0001 1C11.4591 1 10.9505 1.21065 10.5677 1.59334L1.59728 10.5627C1.59426 10.5658 1.59107 10.5689 1.58822 10.572C0.802615 11.362 0.803958 12.6439 1.59208 13.4319C1.95215 13.7921 2.42753 14.0006 2.93599 14.0226C2.95681 14.0246 2.97762 14.0256 2.99861 14.0256H3.35616V20.6297C3.35616 21.9367 4.41974 23 5.72689 23H9.23827C9.59431 23 9.88286 22.7113 9.88286 22.3555V17.1777C9.88286 16.5814 10.3682 16.0963 10.9646 16.0963H13.0357C13.6321 16.0963 14.1172 16.5814 14.1172 17.1777V22.3555C14.1172 22.7113 14.4058 23 14.7618 23H18.2732C19.5805 23 20.6439 21.9367 20.6439 20.6297V14.0256H20.9756C21.5165 14.0256 22.0251 13.8149 22.408 13.4321C23.197 12.6429 23.1973 11.3587 22.4092 10.5689ZM21.4963 12.5207C21.3572 12.6598 21.1722 12.7365 20.9756 12.7365H19.9993C19.6433 12.7365 19.3547 13.025 19.3547 13.381V20.6297C19.3547 21.2259 18.8696 21.7109 18.2732 21.7109H15.4064V17.1777C15.4064 15.8707 14.343 14.8072 13.0357 14.8072H10.9646C9.65725 14.8072 8.59367 15.8707 8.59367 17.1777V21.7109H5.72689C5.13064 21.7109 4.64535 21.2259 4.64535 20.6297V13.381C4.64535 13.025 4.35679 12.7365 4.00075 12.7365H3.04124C3.03117 12.7358 3.02127 12.7353 3.01103 12.7352C2.81899 12.7318 2.63888 12.6556 2.50391 12.5205C2.21687 12.2335 2.21687 11.7664 2.50391 11.4792C2.50408 11.4792 2.50408 11.479 2.50425 11.4788L2.50475 11.4783L11.4796 2.50475C11.6186 2.3656 11.8034 2.28906 12.0001 2.28906C12.1967 2.28906 12.3815 2.3656 12.5207 2.50475L21.4935 11.4765C21.4948 11.4778 21.4963 11.4792 21.4977 11.4805C21.7832 11.768 21.7827 12.2341 21.4963 12.5207Z" fill="black"/>
</svg>
