<svg width="24" height="24" viewBox="0 0 24 24" fill="none" xmlns="http://www.w3.org/2000/svg">
<g clip-path="url(#clip0_2140_325475)">
<path d="M21.3813 12.7276C21.3959 12.7144 21.4163 12.7107 21.4303 12.6967C21.67 12.457 21.801 12.1332 21.8191 11.7348C21.8926 10.184 20.0806 7.28039 17.3109 4.51095C14.6062 1.80598 11.7492 0 10.1811 0C10.1694 0 10.1587 0 10.147 0C9.72091 0.00746591 9.37686 0.139551 9.1244 0.391961C9.11049 0.40587 9.10297 0.423716 9.08983 0.438137L9.08605 0.435069L7.66768 2.19304C4.95101 2.31336 1.0966 4.23358 1.0966 7.08965C1.0966 7.97707 1.46386 8.66307 2.01527 9.19836L0.349855 11.2624C0.202838 11.4099 0.0209971 11.6778 0.00182095 12.114C-0.058878 13.43 1.40234 15.7792 3.72138 18.0985C5.98718 20.3635 8.29773 21.8185 9.624 21.8185C9.63464 21.8185 9.64425 21.8185 9.65382 21.8185C10.1236 21.8105 10.4059 21.6231 10.5167 21.5075L21.3877 12.7355L21.3813 12.7276ZM6.6811 3.41576L2.70044 8.34919C2.38805 8.00801 2.18744 7.59606 2.18744 7.08965C2.18739 5.28689 4.57541 3.8564 6.6811 3.41576ZM9.7859 20.6991C9.78058 20.7044 9.73799 20.7262 9.63571 20.7278C9.63147 20.7278 9.62615 20.7278 9.62078 20.7278C8.78138 20.7278 6.70836 19.5418 4.49262 17.3273C2.23428 15.0687 1.05503 12.9815 1.0923 12.164C1.09655 12.0761 1.11573 12.0388 1.16047 11.9893L2.88811 9.84887C4.30526 10.6644 6.18907 10.9071 7.09608 10.9071C8.25472 10.9071 9.17175 10.8762 10.1847 10.6155C10.3786 10.7923 10.6312 10.9071 10.914 10.9071C11.5158 10.9071 12.0048 10.4177 12.0048 9.81635C12.0048 9.21509 11.5158 8.72561 10.914 8.72561C10.3969 8.72561 9.98354 9.0942 9.87156 9.57729C9.04166 9.78761 8.26326 9.81635 7.09608 9.81635C6.46623 9.81635 4.79197 9.64248 3.57303 9.00031L8.89551 2.40658C9.43066 4.18117 11.2409 6.57532 13.2438 8.57767C15.2517 10.5858 17.6479 12.3884 19.424 12.9181L9.7859 20.6991ZM20.7304 11.6842C20.7273 11.7487 20.7126 11.8616 20.6625 11.9182L20.6495 11.9286C20.2037 12.3426 17.4796 11.2708 14.015 7.80648C10.5449 4.33724 9.47694 1.61386 9.89319 1.17056L9.90132 1.16044C9.96662 1.09861 10.0916 1.0865 10.1865 1.09069C11.2634 1.09069 13.7806 2.52384 16.5397 5.28208C19.3264 8.06851 20.7783 10.6595 20.7304 11.6842Z" fill="black"/>
<path d="M21.7214 16.6004C21.519 16.3054 21.0269 16.3054 20.8245 16.6004C20.4442 17.1511 18.5459 19.9647 18.5459 21.2733C18.5459 22.7767 19.7688 24.0001 21.273 24.0001C22.7771 24.0001 24 22.7767 24 21.2733C24 19.9647 22.1017 17.1511 21.7214 16.6004ZM21.273 22.9093C20.3707 22.9093 19.6367 22.1754 19.6367 21.2733C19.6367 20.6778 20.4879 19.1232 21.273 17.8962C22.058 19.1227 22.9092 20.6768 22.9092 21.2733C22.9092 22.1754 22.1753 22.9093 21.273 22.9093Z" fill="black"/>
</g>
<defs>
<clipPath id="clip0_2140_325475">
<rect width="24" height="24" fill="white"/>
</clipPath>
</defs>
</svg>
